<svg width="25" height="25" viewBox="0 0 25 25" fill="none" xmlns="http://www.w3.org/2000/svg">
<g id="Atom/Btn-Icon/Small/Flash">
<path id="Icon color" d="M18.59 10.653L11.59 22.073C11.4526 22.2949 11.211 22.4308 10.95 22.433H10.75C10.6099 22.4327 10.4761 22.3749 10.38 22.273C10.2844 22.1707 10.2371 22.0324 10.25 21.893L10.81 15.433H7.24C6.97141 15.4301 6.72429 15.2856 6.59 15.053L6.4 14.723C6.30456 14.5664 6.30456 14.3696 6.4 14.213L13.4 2.79299C13.5411 2.56496 13.7919 2.42815 14.06 2.43299H14.26C14.4001 2.43325 14.5339 2.4911 14.63 2.59299C14.7256 2.69526 14.773 2.83356 14.76 2.97299L14.19 9.43299H17.76C18.0286 9.43589 18.2757 9.58035 18.41 9.81299L18.6 10.143C18.6924 10.3015 18.6885 10.4983 18.59 10.653Z" fill="#2C2C2C"/>
</g>
</svg>
