<svg width="25" height="24" viewBox="0 0 25 24" fill="none" xmlns="http://www.w3.org/2000/svg">
<g id="Atom/Btn-Icon/Small/Flash">
<path id="Icon color" d="M19.0669 10.2199L12.0669 21.6399C11.9295 21.8618 11.6879 21.9977 11.4269 21.9999H11.2269C11.0868 21.9996 10.953 21.9418 10.8569 21.8399C10.7612 21.7376 10.7139 21.5993 10.7269 21.4599L11.2869 14.9999H7.71686C7.44827 14.997 7.20115 14.8525 7.06686 14.6199L6.87686 14.2899C6.78142 14.1333 6.78142 13.9365 6.87686 13.7799L13.8769 2.35988C14.0179 2.13185 14.2688 1.99504 14.5369 1.99988H14.7369C14.8769 2.00014 15.0107 2.058 15.1069 2.15988C15.2025 2.26215 15.2498 2.40046 15.2369 2.53988L14.6669 8.99988H18.2369C18.5055 9.00278 18.7526 9.14725 18.8869 9.37988L19.0769 9.70988C19.1693 9.86835 19.1654 10.0652 19.0669 10.2199Z" stroke="#FFD703" stroke-width="2"/>
</g>
</svg>
